<?xml version="1.0" encoding="UTF-8" standalone="no"?>
<svg
   class="_3o8U-"
   height="64"
   preserveAspectRatio="xMinYMid meet"
   viewBox="0 0 155 64"
   width="155"
   version="1.1"
   id="svg4"
   sodipodi:docname="ABC News logo.svg"
   inkscape:version="1.1.1 (3bf5ae0d25, 2021-09-20)"
   xmlns:inkscape="http://www.inkscape.org/namespaces/inkscape"
   xmlns:sodipodi="http://sodipodi.sourceforge.net/DTD/sodipodi-0.dtd"
   xmlns="http://www.w3.org/2000/svg"
   xmlns:svg="http://www.w3.org/2000/svg">
  <defs
     id="defs8" />
  <sodipodi:namedview
     id="namedview6"
     pagecolor="#ffffff"
     bordercolor="#cccccc"
     borderopacity="1"
     inkscape:pageshadow="0"
     inkscape:pageopacity="1"
     inkscape:pagecheckerboard="0"
     showgrid="false"
     fit-margin-left="16"
     fit-margin-right="16"
     fit-margin-top="10"
     fit-margin-bottom="10"
     width="155px"
     inkscape:zoom="2.1504065"
     inkscape:cx="52.083176"
     inkscape:cy="-3.952741"
     inkscape:window-width="1600"
     inkscape:window-height="877"
     inkscape:window-x="-8"
     inkscape:window-y="-8"
     inkscape:window-maximized="1"
     inkscape:current-layer="layer1" />
  <g
     inkscape:groupmode="layer"
     id="layer1"
     inkscape:label="Layer 1">
    <rect
       style="fill:#0f1010;fill-rule:evenodd;fill-opacity:1.0"
       id="rect1417"
       width="155"
       height="64"
       x="0"
       y="0" />
  </g>
  <g
     inkscape:groupmode="layer"
     id="layer2"
     inkscape:label="Layer 2">
    <path
       d="m 129.13449,20 c 4.455,0 7.635,2 7.635,2 l -1.586,3.241 c 0,0 -2.911,-1.662 -5.984,-1.662 -2.361,0 -3.913,0.706 -3.913,2.63 0,4.524 12.624,2.465 12.624,10.466 -0.034,4.86 -3.747,7.325 -8.675,7.325 -5.74,0 -9.081,-2.906 -9.081,-2.906 l 2.091,-3.171 c 0,0 2.939,2.499 6.787,2.499 2.869,0 4.59,-1.251 4.59,-3.274 0,-4.694 -12.559,-3.004 -12.559,-10.735 0,-4.321 3.343,-6.413 8.07,-6.413 z M 25.050486,21.648 c 0.407,0.413 1.213,2.345 1.286,2.52 l 0.005,0.012 4.95,13.215 c 0.285,0.753 0.883,1.167 1.486,1.22 a 1.588,1.588 0 0 0 1.518,-0.96 l 0.059,-0.15 1.565,-4.156 2.63,6.904 c -1.293,2.321 -2.53,2.917 -3.98,3.453 a 6.534,6.534 0 0 1 -1.742,0.291 c -0.133,0.004 -0.35,0.003 -0.483,0 -1.077,-0.038 -2.138,-0.322 -2.99,-0.827 -0.467,-0.314 -1.674,-1.118 -2.528,-3.037 l -0.109,-0.256 -5.218,-14.564 V 38.58 l 0.079,-0.223 1.911,-5.384 2.475,7.012 c -0.372,1.618 -1.506,2.967 -2.848,3.615 -0.43,0.199 -0.783,0.315 -1.21,0.364 l -0.22,0.02 -0.133,0.004 a 4.969,4.969 0 0 1 -3.016,-0.818 c -1.28,-0.93 -1.686,-2.058 -1.762,-3.95 l -0.008,-0.263 V 24.563 c 0.163,-2.377 1.667,-3.67 3.015,-4.264 0.64,-0.216 0.911,-0.269 1.611,-0.269 1.182,-0.054 2.634,0.43 3.657,1.618 z m 7.857,-1.648 c 1.175,-0.014 2.347,0.253 3.278,0.84 0.465,0.307 1.667,1.065 2.522,2.98 l 0.11,0.257 5.16,14.613 V 25.368 l -0.122,0.36 -1.81,5.253 -2.47,-7.012 c 0.32,-1.566 1.505,-2.914 2.849,-3.563 0.322,-0.15 0.72,-0.26 1.092,-0.327 l 0.272,-0.043 c 0.033,-0.008 0.068,-0.01 0.101,-0.012 l 0.014,-0.002 0.014,-0.002 c 1.075,-0.083 2.162,0.215 3.078,0.766 1.289,0.98 1.687,2.058 1.764,3.99 l 0.008,0.27 v 14.346 c -0.159,2.425 -1.717,3.72 -3.065,4.314 -0.588,0.215 -0.861,0.269 -1.557,0.269 -1.182,0 -2.688,-0.432 -3.657,-1.673 -0.414,-0.408 -1.213,-2.346 -1.285,-2.522 l -0.005,-0.012 -4.95,-13.16 a 2.036,2.036 0 0 0 -1.608,-1.222 c -0.572,-0.015 -1.133,0.295 -1.443,0.955 l -0.067,0.159 -1.508,4.157 -2.635,-6.957 c 1.291,-2.323 2.526,-2.859 3.977,-3.4 0.409,-0.129 0.95,-0.217 1.444,-0.264 l 0.289,-0.024 0.052,-0.005 h 0.051 z m 55.654,0.285 -0.5,3.463 h -9.554 v 6.026 h 9.222 v 3.563 h -9.222 v 6.693 h 10.122 v 3.563 h -14.25 V 20.285 h 14.183 z m -30.004,-0.032 9.356,16.948 V 20.253 h 4.162 v 23.308 h -5.095 l -9.156,-16.415 V 43.56 h -4.162 V 20.253 Z m 35.888,0 4.263,18.48 h 0.133 l 4.328004,-18.48 h 3.996 l 4.494,18.48 h 0.134 l 4.096,-18.48 h 4.429 l -5.928,23.308 h -4.928 l -4.262,-16.249 -4.228,16.249 h -4.962004 l -5.96,-23.308 z"
       fill="currentColor"
       id="path2"
       style="fill:#ffffff;fill-opacity:1" />
  </g>
</svg>
