<svg width="100" height="21" viewBox="0 0 100 21" fill="none" xmlns="http://www.w3.org/2000/svg">
<g clip-path="url(#clip0_0_857)">
<path d="M7.76054 3.00721C6.59278 3.00721 6.25514 3.52514 6.25514 4.66751V6.56257H9.37002L9.05779 9.62419H6.25635V18.9156H2.51827V9.62419H0V6.56257H2.51827V4.71954C2.51827 1.6313 3.76349 4.795e-05 7.23776 4.795e-05C7.96578 -0.00164622 8.69332 0.0415543 9.416 0.129531V3.01084L7.76054 3.00721Z" fill="#1877F2"/>
<path d="M9.62891 12.3495C9.62891 8.89818 11.2638 6.29883 14.6897 6.29883C16.5581 6.29883 17.6992 7.25967 18.2451 8.45286V6.56264H21.8257V18.9156H18.2451V17.0471C17.7259 18.2416 16.5581 19.1757 14.6897 19.1757C11.2638 19.1757 9.62891 16.58 9.62891 13.1252V12.3495ZM13.3658 13.1808C13.3658 15.0226 14.0398 16.2424 15.7788 16.2424C17.3108 16.2424 18.0889 15.1267 18.0889 13.3623V12.122C18.0889 10.3576 17.3108 9.24186 15.7788 9.24186C14.0398 9.24186 13.3658 10.4617 13.3658 12.3035V13.1808Z" fill="#1877F2"/>
<path d="M29.6112 6.30225C31.0634 6.30225 32.4393 6.61445 33.192 7.13239L32.3618 9.78015C31.5832 9.40937 30.7324 9.21429 29.8702 9.20896C27.8456 9.20896 26.9659 10.3767 26.9659 12.3759V13.1019C26.9659 15.1011 27.848 16.2688 29.8702 16.2688C30.7324 16.2634 31.5832 16.0685 32.3618 15.6977L33.192 18.3442C32.4393 18.8634 31.0645 19.1756 29.6112 19.1756C25.2245 19.1756 23.2266 16.8134 23.2266 13.0245V12.4533C23.2266 8.66441 25.2245 6.30225 29.6112 6.30225Z" fill="#1877F2"/>
<path d="M33.6855 13.211V12.1219C33.6855 8.61855 35.6835 6.31323 39.7592 6.31323C43.6001 6.31323 45.287 8.64879 45.287 12.0747V14.0472H37.4211C37.4998 15.7341 38.2525 16.4867 40.3255 16.4867C41.7281 16.4867 43.2068 16.2012 44.2971 15.7341L44.9808 18.2936C43.9946 18.8139 41.97 19.2023 40.1803 19.2023C35.4498 19.201 33.6855 16.8413 33.6855 13.211ZM37.4224 11.6015H41.9386V11.2905C41.9386 9.9412 41.394 8.87023 39.7603 8.87023C38.0722 8.87145 37.4224 9.93636 37.4224 11.5967V11.6015Z" fill="#1877F2"/>
<path d="M59.138 13.1286C59.138 16.5798 57.4777 19.1792 54.0554 19.1792C52.187 19.1792 50.8897 18.245 50.3705 17.0506V18.919H46.8418V0.359343L50.5788 0.0205078V8.27357C51.1232 7.18446 52.3177 6.30106 54.0567 6.30106C57.4824 6.30106 59.1391 8.89679 59.1391 12.3517L59.138 13.1286ZM55.4012 12.2718C55.4012 10.5329 54.727 9.23562 52.9361 9.23562C51.404 9.23562 50.5739 10.3247 50.5739 12.0903V13.3876C50.5739 15.1519 51.404 16.2422 52.9361 16.2422C54.727 16.2422 55.4012 14.945 55.4012 13.206V12.2718Z" fill="#1877F2"/>
<path d="M60.3887 13.0499V12.4279C60.3887 8.87134 62.4133 6.30225 66.5398 6.30225C70.6663 6.30225 72.692 8.87134 72.692 12.4279V13.0499C72.692 16.6053 70.6676 19.1756 66.5411 19.1756C62.4144 19.1756 60.3887 16.6053 60.3887 13.0499ZM68.9539 12.1677C68.9539 10.5328 68.2787 9.2356 66.5338 9.2356C64.7887 9.2356 64.1195 10.5328 64.1195 12.1677V13.3101C64.1195 14.945 64.7947 16.2422 66.5338 16.2422C68.2726 16.2422 68.9539 14.945 68.9539 13.3101V12.1677Z" fill="#1877F2"/>
<path d="M73.9355 13.0499V12.4279C73.9355 8.87134 75.9601 6.30225 80.0867 6.30225C84.2132 6.30225 86.2378 8.87134 86.2378 12.4279V13.0499C86.2378 16.6053 84.2132 19.1756 80.0867 19.1756C75.9601 19.1756 73.9355 16.6053 73.9355 13.0499ZM82.5008 12.1677C82.5008 10.5328 81.8255 9.2356 80.0867 9.2356C78.3476 9.2356 77.6736 10.5328 77.6736 12.1677V13.3101C77.6736 14.945 78.3476 16.2422 80.0867 16.2422C81.8255 16.2422 82.5008 14.945 82.5008 13.3101V12.1677Z" fill="#1877F2"/>
<path d="M91.3748 12.4533L95.0597 6.56246H99.0301L95.1637 12.6615L99.1862 18.9154H95.2158L91.3748 12.8648V18.9154H87.6367V0.359343L91.3748 0.0205078V12.4533Z" fill="#1877F2"/>
</g>
<defs>
<clipPath id="clip0_0_857">
<rect width="100" height="20.6349" fill="white"/>
</clipPath>
</defs>
</svg>
