<svg width="229" height="42" viewBox="0 0 229 42" fill="none" xmlns="http://www.w3.org/2000/svg">
<path d="M215.235 16.6098L220.099 28.3571H220.156L224.905 16.6098H228.262L218.022 40.1897H214.837L218.648 31.9411L211.907 16.6098H215.235ZM204.199 16.0694C206.474 16.0694 208.265 16.6667 209.574 17.8898C210.883 19.1129 211.537 20.7626 211.537 22.8959V32.9934H208.607V30.7179H208.465C207.185 32.5953 205.506 33.5339 203.401 33.5339C201.61 33.5339 200.102 32.9934 198.879 31.941C197.656 30.8602 197.058 29.5233 197.058 27.9304C197.058 26.2523 197.684 24.8869 198.993 23.8914C200.273 22.8959 201.98 22.3839 204.113 22.3839C205.933 22.3839 207.44 22.7253 208.635 23.3795V22.6683C208.635 21.5875 208.209 20.7057 207.355 19.9377C206.503 19.1981 205.506 18.8284 204.369 18.8284C202.662 18.8284 201.297 19.5395 200.301 20.9902L197.599 19.2835C199.078 17.1502 201.297 16.0694 204.199 16.0694ZM188.668 9.04383C190.744 9.04383 192.508 9.72648 193.958 11.1202C195.437 12.514 196.148 14.1921 196.148 16.1548C196.148 18.1743 195.408 19.8809 193.958 21.2178C192.535 22.5831 190.773 23.2658 188.668 23.2658H183.605V32.9651H180.532V9.04383H188.668ZM204.596 24.8016C203.345 24.8016 202.321 25.1145 201.467 25.7118C200.642 26.3376 200.216 27.0771 200.216 27.9589C200.216 28.7554 200.557 29.4379 201.24 29.95C201.922 30.4904 202.719 30.7464 203.629 30.7464C204.909 30.7464 206.075 30.2629 207.099 29.3242C208.123 28.3571 208.607 27.2478 208.607 25.9394C207.64 25.1714 206.303 24.8016 204.596 24.8016ZM188.753 12.0304H183.605V20.3645H188.753C189.976 20.3645 191 19.9663 191.797 19.1414C192.622 18.3165 193.019 17.3495 193.019 16.2116C193.019 15.1024 192.622 14.1352 191.797 13.3104C191 12.4571 189.976 12.0304 188.753 12.0304Z" fill="#5F6368"/>
<path d="M137.126 16.0979C139.203 16.0979 140.853 17.0081 141.707 18.032H141.848V16.6099H145.489V32.254C145.489 38.6822 141.707 41.3276 137.212 41.3276C133.002 41.3276 130.471 38.4832 129.503 36.1793L132.832 34.7854C133.429 36.2077 134.88 37.8859 137.212 37.8859C140.085 37.8859 141.848 36.0939 141.848 32.766V31.5144H141.707C140.853 32.5669 139.203 33.5055 137.126 33.5055C132.775 33.5055 128.793 29.7224 128.793 24.8302C128.793 19.9094 132.775 16.0979 137.126 16.0979ZM162.158 16.1264C166.681 16.1264 168.871 19.7104 169.61 21.6729L170.009 22.6685L158.375 27.4755C159.257 29.2106 160.65 30.1208 162.584 30.1208C164.519 30.0639 165.884 29.1252 166.88 27.6746L169.837 29.6657C168.871 31.0879 166.567 33.5341 162.584 33.5341C157.635 33.5341 153.966 29.7225 153.966 24.8303C153.966 19.6534 157.693 16.1264 162.158 16.1264ZM76.9983 6.48413C81.1226 6.48413 84.0523 8.10543 86.2425 10.2103L83.6256 12.8271C82.0328 11.3481 79.8995 10.1819 76.9698 10.1819C71.537 10.1819 67.2704 14.5622 67.2704 19.995C67.2704 25.4277 71.5086 29.8081 76.9698 29.8081C80.4968 29.8081 82.5163 28.3859 83.7963 27.1059C84.8487 26.0535 85.5314 24.546 85.8158 22.4696H76.8845V18.7719H89.3997C89.542 19.4261 89.5989 20.2225 89.5989 21.0758C89.5989 23.8349 88.8308 27.2766 86.4131 29.7227C84.0238 32.1973 81.0088 33.5058 76.9983 33.5058C69.5459 33.5058 63.2883 27.4472 63.2883 19.995C63.2883 12.5427 69.5459 6.48413 76.9983 6.48413ZM99.6122 16.0979C104.419 16.0979 108.345 19.7672 108.345 24.8017C108.345 29.8078 104.419 33.5055 99.6122 33.5055C94.8052 33.5055 90.8799 29.8078 90.8799 24.8017C90.8799 19.7672 94.8052 16.0979 99.6122 16.0979ZM118.612 16.0979C123.419 16.0979 127.344 19.7672 127.344 24.8017C127.344 29.8078 123.419 33.5055 118.612 33.5055C113.804 33.5055 109.879 29.8078 109.879 24.8017C109.879 19.7672 113.804 16.0979 118.612 16.0979ZM152.061 7.39442V32.9655H148.249V7.39442H152.061ZM99.6407 19.5396C97.0239 19.5396 94.7484 21.6729 94.7484 24.8017C94.7484 27.902 97.0239 30.0638 99.6407 30.0638C102.258 30.0638 104.533 27.902 104.533 24.8017C104.533 21.6729 102.258 19.5396 99.6407 19.5396ZM118.612 19.5396C115.994 19.5396 113.719 21.6729 113.719 24.8017C113.719 27.902 115.994 30.0638 118.612 30.0638C121.228 30.0638 123.504 27.902 123.504 24.8017C123.504 21.6729 121.228 19.5396 118.612 19.5396ZM137.496 19.5111C134.851 19.5111 132.661 21.7582 132.661 24.8302C132.661 27.8737 134.88 30.0638 137.496 30.0638C140.085 30.0638 142.133 27.8737 142.133 24.8302C142.133 21.7582 140.085 19.5111 137.496 19.5111ZM162.272 19.4544C160.338 19.4544 157.635 21.1894 157.749 24.5458L165.514 21.3031C165.088 20.2223 163.808 19.4544 162.272 19.4544Z" fill="#5F6368"/>
<path d="M43.1162 7.80682C38.5139 5.15016 32.629 6.7288 29.9694 11.331L23.2653 22.9446C21.3254 26.2982 23.8227 27.47 26.6074 29.1397L33.0584 32.863C35.2429 34.123 38.0333 33.375 39.2934 31.1933L46.1853 19.2583C48.5006 15.2477 47.1267 10.1222 43.1162 7.80682Z" fill="#EA4335"/>
<path d="M35.5303 12.6136L29.0793 8.89033C25.5181 6.91349 23.5014 6.78265 22.0393 9.10651L12.525 25.5841C9.86828 30.1834 11.4498 36.0656 16.0491 38.7166C20.0597 41.0319 25.1853 39.658 27.5006 35.6475L37.1971 18.8513C38.4628 16.6669 37.7148 13.8737 35.5303 12.6136Z" fill="#FBBC04"/>
<path d="M36.7719 4.14309L32.2408 1.52627C27.229 -1.36647 20.8207 0.348689 17.9279 5.36049L9.30089 20.302C8.02661 22.5064 8.78321 25.328 10.9876 26.5995L16.062 29.5292C18.5679 30.9771 21.7706 30.118 23.2185 27.6121L33.0742 10.543C35.1165 7.00739 39.6362 5.79568 43.1718 7.83795L36.7719 4.14309Z" fill="#34A853"/>
<path d="M19.1535 9.63515L14.2554 6.81353C12.0709 5.55632 9.28062 6.30154 8.02056 8.48034L2.14407 18.6348C-0.748677 23.6323 0.966487 30.0266 5.97829 32.9108L9.70728 35.0582L14.2298 37.6637L16.1925 38.7929C12.7081 36.4606 11.6016 31.7872 13.732 28.1066L15.2538 25.4784L20.826 15.8501C22.0832 13.6771 21.3351 10.8924 19.1535 9.63515Z" fill="#4285F4"/>
</svg>
