<svg xmlns="http://www.w3.org/2000/svg" xmlns:xlink="http://www.w3.org/1999/xlink" zoomAndPan="magnify" viewBox="0 125 375 125" preserveAspectRatio="xMidYMid meet" version="1.0"><defs><g/><clipPath id="6e06702baf"><path d="M 0 124.945312 L 351.703125 124.945312 L 351.703125 250.054688 L 0 250.054688 Z M 0 124.945312 " clip-rule="nonzero"/></clipPath><clipPath id="ea8e76b68a"><path d="M 0 0.945312 L 351.703125 0.945312 L 351.703125 126.054688 L 0 126.054688 Z M 0 0.945312 " clip-rule="nonzero"/></clipPath><clipPath id="103e08ea9c"><rect x="0" width="352" y="0" height="127"/></clipPath><clipPath id="01505c9d88"><path d="M 0 124.945312 L 351.46875 124.945312 L 351.46875 250.054688 L 0 250.054688 Z M 0 124.945312 " clip-rule="nonzero"/></clipPath></defs><g clip-path="url(#6e06702baf)"><g transform="matrix(1, 0, 0, 1, 0, 124)"><g clip-path="url(#103e08ea9c)"><g clip-path="url(#ea8e76b68a)"><path fill="#ffffff" d="M -16.78125 0.945312 L 351.714844 0.945312 L 351.714844 126.054688 L -16.78125 126.054688 Z M -16.78125 0.945312 " fill-opacity="1" fill-rule="nonzero"/></g></g></g></g><g clip-path="url(#01505c9d88)"><path stroke-linecap="butt" transform="matrix(0.75, 0, 0, 0.75, -16.777562, 124.944001)" fill="none" stroke-linejoin="miter" d="M 0.000291104 0.00174814 L 491.302407 0.00174814 L 491.302407 166.814259 L 0.000291104 166.814259 Z M 0.000291104 0.00174814 " stroke="#ffffff" stroke-width="8" stroke-opacity="1" stroke-miterlimit="4"/></g><g fill="#000000" fill-opacity="1"><g transform="translate(2.757189, 208.062613)"><g><path d="M 50.359375 -37 C 48.898438 -43.039062 45.203125 -46.0625 39.265625 -46.0625 C 36.140625 -46.0625 33.203125 -45.039062 30.453125 -43 C 27.710938 -40.957031 25.535156 -38.257812 23.921875 -34.90625 C 22.316406 -31.5625 21.515625 -28.15625 21.515625 -24.6875 C 21.515625 -20.363281 22.644531 -16.878906 24.90625 -14.234375 C 27.175781 -11.585938 30.222656 -10.265625 34.046875 -10.265625 C 37.523438 -10.265625 40.445312 -11.144531 42.8125 -12.90625 C 45.175781 -14.664062 46.734375 -17.082031 47.484375 -20.15625 L 35.40625 -20.15625 L 37.296875 -31.78125 L 66.671875 -31.78125 C 65.359375 -23.832031 63.15625 -17.554688 60.0625 -12.953125 C 56.96875 -8.347656 53.039062 -4.722656 48.28125 -2.078125 C 43.519531 0.566406 38.097656 1.890625 32.015625 1.890625 C 24.160156 1.890625 17.851562 -0.320312 13.09375 -4.75 C 8.34375 -9.1875 5.96875 -15.101562 5.96875 -22.5 C 5.96875 -28.988281 7.5 -35.023438 10.5625 -40.609375 C 13.632812 -46.203125 17.9375 -50.632812 23.46875 -53.90625 C 29.007812 -57.175781 35.226562 -58.8125 42.125 -58.8125 C 54.15625 -58.8125 61.882812 -53.503906 65.3125 -42.890625 Z M 50.359375 -37 "/></g></g></g><g fill="#000000" fill-opacity="1"><g transform="translate(58.318995, 208.062613)"><g><path d="M 28.609375 -56.921875 L 19.625 0 L 4.828125 0 L 13.8125 -56.921875 Z M 28.609375 -56.921875 "/></g></g></g><g fill="#000000" fill-opacity="1"><g transform="translate(74.775838, 208.062613)"><g><path d="M 61.53125 -56.921875 L 27.703125 -12.53125 L 51.5625 -12.53125 L 49.609375 0 L 0.828125 0 L 34.8125 -44.390625 L 12.453125 -44.390625 L 14.421875 -56.921875 Z M 61.53125 -56.921875 "/></g></g></g><g fill="#000000" fill-opacity="1"><g transform="translate(120.1462, 208.062613)"><g><path d="M 34.65625 -56.921875 L 41.453125 -26.5 L 58.4375 -56.921875 L 73.15625 -56.921875 L 72.78125 0 L 57.984375 0 L 59.046875 -32.765625 L 58.890625 -32.765625 L 40.015625 0 L 34.125 0 L 26.28125 -32.765625 L 26.125 -32.765625 L 16.15625 0 L 1.4375 0 L 20.078125 -56.921875 Z M 34.65625 -56.921875 "/></g></g></g><g fill="#000000" fill-opacity="1"><g transform="translate(186.352406, 208.062613)"><g><path d="M 69.984375 -33.96875 C 69.984375 -28.488281 68.394531 -22.800781 65.21875 -16.90625 C 62.050781 -11.019531 57.570312 -6.414062 51.78125 -3.09375 C 46 0.226562 39.785156 1.890625 33.140625 1.890625 C 25.140625 1.890625 18.644531 -0.460938 13.65625 -5.171875 C 8.675781 -9.878906 6.1875 -16.082031 6.1875 -23.78125 C 6.1875 -30.125 7.859375 -35.972656 11.203125 -41.328125 C 14.554688 -46.691406 19.113281 -50.945312 24.875 -54.09375 C 30.632812 -57.238281 36.585938 -58.8125 42.734375 -58.8125 C 47.617188 -58.8125 52.1875 -57.753906 56.4375 -55.640625 C 60.6875 -53.523438 64.003906 -50.59375 66.390625 -46.84375 C 68.785156 -43.09375 69.984375 -38.800781 69.984375 -33.96875 Z M 35.40625 -12.453125 C 38.832031 -12.453125 41.988281 -13.394531 44.875 -15.28125 C 47.769531 -17.175781 50.070312 -19.617188 51.78125 -22.609375 C 53.5 -25.609375 54.359375 -28.566406 54.359375 -31.484375 C 54.359375 -35.109375 52.984375 -38.175781 50.234375 -40.6875 C 47.492188 -43.207031 44.210938 -44.46875 40.390625 -44.46875 C 37.421875 -44.46875 34.476562 -43.660156 31.5625 -42.046875 C 28.644531 -40.441406 26.289062 -38.28125 24.5 -35.5625 C 22.707031 -32.84375 21.8125 -29.820312 21.8125 -26.5 C 21.8125 -22.425781 23.082031 -19.066406 25.625 -16.421875 C 28.164062 -13.773438 31.425781 -12.453125 35.40625 -12.453125 Z M 35.40625 -12.453125 "/></g></g></g><g fill="#ffffff" fill-opacity="1"><g transform="translate(251.417024, 208.062613)"><g><path d="M 34.878906 -59.753906 C 40.101562 -59.753906 44.800781 -58.589844 48.976562 -56.261719 C 53.179688 -53.921875 56.480469 -50.691406 58.878906 -46.570312 C 61.273438 -42.457031 62.472656 -38.054688 62.472656 -33.367188 C 62.472656 -27.109375 60.789062 -21.175781 57.425781 -15.566406 C 54.082031 -9.996094 49.558594 -5.539062 43.859375 -2.199219 C 38.132812 1.152344 32.144531 2.832031 25.894531 2.832031 L 1.519531 2.832031 L 11.394531 -59.753906 Z M 34.878906 -54.09375 L 13.816406 -54.09375 L 13.816406 -56.921875 L 16.613281 -56.480469 L 7.628906 0.441406 L 4.832031 0 L 4.832031 -2.832031 L 25.894531 -2.832031 C 31.121094 -2.832031 36.15625 -4.25 40.996094 -7.085938 C 45.867188 -9.9375 49.722656 -13.734375 52.570312 -18.480469 C 55.398438 -23.191406 56.808594 -28.152344 56.808594 -33.367188 C 56.808594 -37.035156 55.867188 -40.488281 53.984375 -43.722656 C 52.105469 -46.949219 49.519531 -49.480469 46.222656 -51.316406 C 42.902344 -53.167969 39.121094 -54.09375 34.878906 -54.09375 Z M 21.589844 -15.363281 L 24.460938 -15.363281 C 29.667969 -15.363281 33.769531 -16.859375 36.765625 -19.855469 C 39.761719 -22.851562 41.257812 -26.777344 41.257812 -31.632812 C 41.257812 -34.664062 40.347656 -37.070312 38.523438 -38.859375 C 36.683594 -40.660156 33.78125 -41.558594 29.820312 -41.558594 L 26.648438 -41.558594 L 26.648438 -44.390625 L 29.445312 -43.945312 L 24.386719 -12.089844 L 21.589844 -12.53125 Z M 18.277344 -9.699219 L 24.234375 -47.222656 L 29.820312 -47.222656 C 35.320312 -47.222656 39.542969 -45.78125 42.484375 -42.902344 C 45.441406 -40.007812 46.921875 -36.25 46.921875 -31.632812 C 46.921875 -25.214844 44.871094 -19.953125 40.769531 -15.851562 C 36.667969 -11.75 31.230469 -9.699219 24.460938 -9.699219 Z M 18.277344 -9.699219 "/></g></g></g><g fill="#ffffff" fill-opacity="1"><g transform="translate(300.18453, 208.062613)"><g><path d="M 27.789062 -58.253906 L 36.019531 -42.777344 L 33.519531 -41.445312 L 31.355469 -43.273438 L 45.265625 -59.753906 L 70.523438 -59.753906 L 40.792969 -25.472656 L 38.652344 -27.328125 L 41.449219 -26.890625 L 36.769531 2.832031 L 16.242188 2.832031 L 21.058594 -27.769531 L 23.855469 -27.328125 L 21.375 -25.960938 L 2.757812 -59.753906 L 26.992188 -59.753906 Z M 22.792969 -55.59375 L 25.289062 -56.921875 L 25.289062 -54.09375 L 7.550781 -54.09375 L 7.550781 -56.921875 L 10.027344 -58.289062 L 26.804688 -27.847656 L 22.351562 0.441406 L 19.554688 0 L 19.554688 -2.832031 L 34.351562 -2.832031 L 34.351562 0 L 31.554688 -0.441406 L 35.984375 -28.570312 L 62.183594 -58.777344 L 64.320312 -56.921875 L 64.320312 -54.09375 L 46.582031 -54.09375 L 46.582031 -56.921875 L 48.742188 -55.097656 L 32.984375 -36.421875 Z M 22.792969 -55.59375 "/></g></g></g><g fill="#000000" fill-opacity="1"><g transform="translate(251.417024, 208.062613)"><g><path d="M 34.875 -56.921875 C 39.613281 -56.921875 43.859375 -55.875 47.609375 -53.78125 C 51.359375 -51.695312 54.300781 -48.816406 56.4375 -45.140625 C 58.570312 -41.472656 59.640625 -37.550781 59.640625 -33.375 C 59.640625 -27.632812 58.09375 -22.179688 55 -17.015625 C 51.90625 -11.859375 47.710938 -7.734375 42.421875 -4.640625 C 37.140625 -1.546875 31.628906 0 25.890625 0 L 4.828125 0 L 13.8125 -56.921875 Z M 21.59375 -12.53125 L 24.46875 -12.53125 C 30.457031 -12.53125 35.222656 -14.300781 38.765625 -17.84375 C 42.316406 -21.394531 44.09375 -25.992188 44.09375 -31.640625 C 44.09375 -35.460938 42.894531 -38.539062 40.5 -40.875 C 38.113281 -43.21875 34.554688 -44.390625 29.828125 -44.390625 L 26.65625 -44.390625 Z M 21.59375 -12.53125 "/></g></g></g><g fill="#000000" fill-opacity="1"><g transform="translate(300.18453, 208.062613)"><g><path d="M 25.296875 -56.921875 L 33.515625 -41.453125 L 46.578125 -56.921875 L 64.328125 -56.921875 L 38.65625 -27.328125 L 34.359375 0 L 19.546875 0 L 23.859375 -27.328125 L 7.546875 -56.921875 Z M 25.296875 -56.921875 "/></g></g></g></svg>