<svg width="135" height="88" viewBox="0 0 135 88" fill="none" xmlns="http://www.w3.org/2000/svg">
<path d="M69.39 27.3645H48.8306V6.80489H69.39V27.3645Z" fill="#F1511B"/>
<path d="M92.0905 27.3645H71.5309V6.80489H92.0905V27.3645Z" fill="#80CC28"/>
<path d="M69.3896 50.0722H48.8306V29.5132H69.3896V50.0722Z" fill="#00ADEF"/>
<path d="M92.0905 50.0722H71.5309V29.5132H92.0905V50.0722Z" fill="#FBBC09"/>
<path d="M131.624 67.4014V64.2797H127.748V59.427L127.617 59.467L123.977 60.5812L123.905 60.6028V64.2797H118.158V62.2319C118.158 61.2783 118.372 60.5482 118.791 60.0616C119.209 59.5807 119.806 59.3364 120.568 59.3364C121.115 59.3364 121.682 59.4658 122.252 59.7197L122.395 59.7834V56.4959L122.328 56.471C121.795 56.2792 121.072 56.1832 120.175 56.1832C119.045 56.1832 118.017 56.4292 117.121 56.9168C116.225 57.4049 115.519 58.1023 115.026 58.9881C114.533 59.8736 114.283 60.8957 114.283 62.0273V64.2791H111.584V67.4007H114.283V80.5514H118.159V67.4007H123.905V75.758C123.905 79.1997 125.528 80.9439 128.73 80.9439C129.257 80.9439 129.81 80.8822 130.376 80.761C130.952 80.6369 131.344 80.5132 131.573 80.3811L131.625 80.3509V77.2007L131.467 77.3048C131.257 77.445 130.995 77.5595 130.687 77.6444C130.379 77.731 130.121 77.7744 129.922 77.7744C129.172 77.7744 128.618 77.5728 128.273 77.1739C127.925 76.771 127.748 76.0669 127.748 75.0832V67.4003H131.624V67.4014H131.624ZM102.931 77.7761C101.524 77.7761 100.415 77.3095 99.6342 76.3908C98.8476 75.468 98.4495 74.1515 98.4495 72.4794C98.4495 70.7539 98.8476 69.4037 99.635 68.4642C100.416 67.5303 101.515 67.057 102.899 67.057C104.243 67.057 105.312 67.5097 106.078 68.4021C106.849 69.2996 107.239 70.6398 107.239 72.3851C107.239 74.1519 106.872 75.5094 106.147 76.4173C105.428 77.3185 104.346 77.7761 102.931 77.7761ZM103.103 63.888C100.42 63.888 98.2885 64.6742 96.7691 66.2251C95.2509 67.7757 94.4802 69.9219 94.4802 72.6043C94.4802 75.1518 95.2318 77.2011 96.7144 78.694C98.1967 80.1878 100.214 80.9443 102.71 80.9443C105.311 80.9443 107.4 80.1478 108.919 78.5752C110.437 77.0047 111.207 74.8789 111.207 72.2592C111.207 69.6723 110.485 67.6071 109.06 66.1242C107.635 64.6401 105.631 63.888 103.103 63.888ZM88.2334 63.888C86.4081 63.888 84.8983 64.3548 83.745 65.2753C82.5843 66.2014 81.9958 67.4158 81.9958 68.885C81.9958 69.649 82.1226 70.3275 82.373 70.9033C82.6245 71.4805 83.0141 71.9889 83.5309 72.4159C84.0443 72.8389 84.8366 73.2824 85.8866 73.7333C86.7689 74.0968 87.427 74.4038 87.8448 74.6456C88.2538 74.883 88.5433 75.1218 88.7068 75.3539C88.8662 75.5811 88.9476 75.8921 88.9476 76.2761C88.9476 77.3689 88.1289 77.9008 86.4442 77.9008C85.8192 77.9008 85.1069 77.7706 84.3255 77.5134C83.5505 77.2597 82.819 76.8887 82.1566 76.4132L81.9958 76.2983V80.0278L82.0552 80.0558C82.6036 80.3093 83.2946 80.5226 84.1094 80.6899C84.9225 80.8579 85.6614 80.9439 86.3033 80.9439C88.284 80.9439 89.8785 80.4742 91.0424 79.5488C92.2138 78.6166 92.8073 77.373 92.8073 75.8525C92.8073 74.7554 92.4879 73.8149 91.8578 73.0568C91.2328 72.3043 90.1465 71.6132 88.6327 71.0025C87.4262 70.5181 86.6528 70.1162 86.3342 69.8078C86.0272 69.5096 85.871 69.0879 85.871 68.5538C85.871 68.081 86.0635 67.7016 86.4593 67.3944C86.8577 67.0864 87.4117 66.9292 88.1079 66.9292C88.7535 66.9292 89.414 67.0313 90.0714 67.2309C90.7278 67.431 91.3043 67.6987 91.7856 68.0261L91.9439 68.1341V64.5959L91.8833 64.5693C91.4384 64.3787 90.8534 64.2156 90.142 64.0835C89.4342 63.9543 88.7919 63.888 88.2334 63.888ZM71.8952 77.7761C70.4891 77.7761 69.3798 77.3095 68.599 76.3908C67.8124 75.468 67.4146 74.1519 67.4146 72.4794C67.4146 70.7539 67.8128 69.4037 68.5996 68.4642C69.3806 67.5303 70.4785 67.057 71.8638 67.057C73.2072 67.057 74.2766 67.5097 75.0428 68.4021C75.8129 69.2996 76.2034 70.6398 76.2034 72.3851C76.2034 74.1519 75.8358 75.5094 75.1114 76.4173C74.3917 77.3185 73.3101 77.7761 71.8952 77.7761ZM72.0677 63.888C69.3842 63.888 67.2527 64.6742 65.7344 66.2251C64.2158 67.7757 63.445 69.9219 63.445 72.6043C63.445 75.153 64.1974 77.2011 65.6792 78.694C67.1617 80.1878 69.1791 80.9443 71.6748 80.9443C74.2755 80.9443 76.3654 80.1478 77.8838 78.5752C79.4016 77.0047 80.1719 74.8789 80.1719 72.2592C80.1719 69.6723 79.4495 67.6071 78.0249 66.1242C76.5993 64.6401 74.5946 63.888 72.0677 63.888ZM57.563 67.098V64.2797H53.7359V80.5512H57.563V72.2282C57.563 70.8126 57.8839 69.6504 58.5168 68.7717C59.1422 67.9039 59.975 67.464 60.9927 67.464C61.3374 67.464 61.7242 67.521 62.1434 67.6334C62.5582 67.7451 62.8584 67.8663 63.0356 67.9943L63.1966 68.1108V64.2521L63.1348 64.2248C62.7784 64.0737 62.2739 63.9972 61.6358 63.9972C60.6742 63.9972 59.8131 64.306 59.0755 64.9149C58.4288 65.4499 57.9608 66.1836 57.6028 67.098H57.563ZM46.8813 63.888C45.1253 63.888 43.5594 64.2644 42.2266 65.0069C40.8917 65.7505 39.8597 66.8133 39.157 68.1639C38.4583 69.511 38.1029 71.0845 38.1029 72.8401C38.1029 74.378 38.4471 75.7882 39.1276 77.0321C39.8089 78.2776 40.7723 79.2516 41.9918 79.928C43.2094 80.603 44.6179 80.9451 46.1763 80.9451C47.9951 80.9451 49.5482 80.5812 50.7935 79.8639L50.8437 79.8353V76.3285L50.6831 76.4461C50.1102 76.8617 49.479 77.1904 48.8101 77.4217C48.1335 77.6573 47.5169 77.7771 46.9762 77.7771C45.4744 77.7771 44.2683 77.3074 43.3933 76.3806C42.516 75.4529 42.0716 74.1505 42.0716 72.511C42.0716 70.8614 42.5352 69.5257 43.4496 68.5397C44.3605 67.5561 45.5689 67.0576 47.0397 67.0576C48.2976 67.0576 49.5237 67.4836 50.6835 68.3252L50.8437 68.4417V64.7461L50.7916 64.7173C50.3551 64.473 49.7599 64.2713 49.021 64.1182C48.285 63.965 47.5651 63.888 46.8813 63.888ZM35.4664 64.2797H31.6388V80.5512H35.4664V64.2797ZM33.5915 57.3487C32.9616 57.3487 32.4125 57.563 31.9613 57.988C31.5079 58.4146 31.2779 58.951 31.2779 59.5841C31.2779 60.2073 31.5053 60.7343 31.9541 61.1486C32.3999 61.562 32.9512 61.772 33.5919 61.772C34.2332 61.772 34.7865 61.5628 35.2376 61.1493C35.6918 60.7343 35.9222 60.2067 35.9222 59.5841C35.9222 58.9732 35.6983 58.4425 35.2564 58.0053C34.8145 57.5692 34.2546 57.3487 33.5915 57.3487ZM24.042 63.0797V80.5512H27.9484V57.8468H22.542L15.6704 74.7114L9.0015 57.8468H3.375V80.5514H7.04607V63.0777H7.17214L14.2141 80.5512H16.9841L23.9162 63.0799L24.042 63.0797Z" fill="#706D6E"/>
</svg>
