<svg width="172" height="69" viewBox="0 0 172 69" fill="none" xmlns="http://www.w3.org/2000/svg">
<path d="M151.847 29.1957C153.813 29.1957 155.406 27.602 155.406 25.6361C155.406 23.6702 153.813 22.0765 151.847 22.0765C149.881 22.0765 148.287 23.6702 148.287 25.6361C148.287 27.602 149.881 29.1957 151.847 29.1957Z" fill="#FF4500"/>
<path d="M121.894 19.8268C122.964 19.8268 123.846 20.6717 123.906 21.7277L123.909 21.8416V47.7308C123.909 48.8393 123.003 49.7456 121.894 49.7456C120.921 49.7456 120.081 49.0409 119.913 48.1001C118.537 49.4771 116.79 50.1825 114.742 50.1825C109.436 50.1825 105.138 45.3805 105.138 39.4706C105.138 33.5607 109.436 28.7586 114.742 28.7586C116.712 28.7586 118.371 29.3796 119.719 30.6515L119.88 30.8073V21.8416C119.88 20.7331 120.786 19.8268 121.894 19.8268ZM142.915 19.8268C143.985 19.8268 144.867 20.6717 144.926 21.7277L144.93 21.8416V47.7308C144.93 48.8393 144.023 49.7456 142.915 49.7456C141.941 49.7456 141.102 49.0409 140.934 48.1001C139.557 49.4771 137.811 50.1825 135.762 50.1825C130.457 50.1825 126.159 45.3805 126.159 39.4706C126.159 33.5607 130.457 28.7586 135.762 28.7586C137.732 28.7586 139.391 29.3796 140.74 30.6515L140.9 30.8073V21.8416C140.9 20.7331 141.807 19.8268 142.915 19.8268ZM94.2247 28.7248C98.6913 28.7248 102.452 32.1505 103.526 36.7841L103.563 36.978C103.617 37.2863 103.667 37.6786 103.694 38.2281C103.759 39.4668 102.812 40.7368 101.16 40.8104L101.008 40.8138V40.7462H88.7517C89.2556 43.8019 91.5389 46.1191 94.2247 46.1191C96.5087 46.1191 97.9189 44.8434 98.6575 44.205C99.4299 43.5672 100.471 43.3657 101.31 43.9365C102.318 44.6419 102.486 46.0859 101.646 47.026C99.9337 48.9401 97.5496 50.1487 94.2247 50.1487C88.9195 50.1487 84.6213 45.3467 84.6213 39.4368C84.6213 33.5269 88.9195 28.7248 94.2247 28.7248ZM162.073 24.2892L162.189 24.2927C163.226 24.3573 164.012 25.2338 164.067 26.2599L164.07 26.3745V29.1955H165.917C166.924 29.1955 167.764 30.068 167.696 31.1089C167.632 32.0454 166.853 32.7336 165.958 32.7852L165.85 32.7883H164.07V47.7646C164.07 48.8725 163.197 49.7456 162.022 49.8126C160.952 49.8126 160.07 48.9677 160.01 47.9123L160.007 47.7984V32.8221H158.294C157.287 32.8221 156.447 31.9489 156.515 30.908C156.579 29.9716 157.358 29.2833 158.253 29.2318L158.361 29.2287H160.041V26.3075C160.041 25.1712 160.95 24.2865 162.073 24.2892ZM83.1441 28.8594C84.0842 29.0271 84.8228 29.8333 84.8228 30.8404C84.8228 31.8442 84.0732 32.6919 83.1167 32.8118L83.0095 32.8221H82.6065C78.7713 32.3919 75.978 35.3805 75.893 39.0622L75.891 39.2352V47.7308C75.891 48.9063 74.9171 49.8126 73.7416 49.7456C72.7053 49.6811 71.9192 48.8046 71.8644 47.7784L71.8613 47.6638V31.2097C71.8613 30.1018 72.7677 29.1955 73.8762 29.1955C74.8485 29.1955 75.8215 29.915 75.8874 31.0829L75.891 31.2097V31.4789C77.4689 29.4972 80.2223 28.4231 83.1441 28.8594ZM151.847 30.975C152.917 30.975 153.799 31.8199 153.858 32.8759L153.862 32.9898V47.7308C153.862 48.8393 152.955 49.7456 151.847 49.7456C150.777 49.7456 149.895 48.9007 149.836 47.8447L149.832 47.7308V32.9898C149.832 31.8813 150.739 30.975 151.847 30.975ZM114.775 32.7545C111.686 32.7545 109.201 35.777 109.201 39.4706C109.201 43.1979 111.686 46.186 114.775 46.186C117.831 46.186 120.35 43.1979 120.35 39.4706C120.35 35.7432 117.865 32.7545 114.775 32.7545ZM135.762 32.7545C132.673 32.7545 130.189 35.777 130.189 39.4706C130.189 43.1979 132.673 46.186 135.762 46.186C138.852 46.186 141.337 43.1979 141.337 39.4706C141.337 35.7432 138.852 32.7545 135.762 32.7545ZM94.1916 32.7883C91.8286 32.7883 89.7866 34.5524 88.9741 37.0769L88.9195 37.2542H99.4637C98.6913 34.6685 96.6089 32.7883 94.1916 32.7883Z" fill="#222222"/>
<path d="M32.4394 62.5394C47.9804 62.5394 60.5788 49.9409 60.5788 34.4C60.5788 18.859 47.9804 6.26062 32.4394 6.26062C16.8985 6.26062 4.30005 18.859 4.30005 34.4C4.30005 49.9409 16.8985 62.5394 32.4394 62.5394Z" fill="#FF4500"/>
<path d="M51.2099 34.4002C51.2099 32.1169 49.3634 30.3036 47.1133 30.3036C46.0054 30.3036 44.9977 30.7398 44.2591 31.4453C41.4387 29.4304 37.5768 28.121 33.2786 27.9533L35.1589 19.1554L41.2703 20.4648C41.3379 22.0096 42.6135 23.252 44.1921 23.252C45.8038 23.252 47.1133 21.9426 47.1133 20.3302C47.1133 18.7185 45.8038 17.4091 44.1921 17.4091C43.0504 17.4091 42.0427 18.0807 41.5726 19.0546L34.7564 17.6106C34.5549 17.5768 34.3533 17.6106 34.2187 17.7114C34.051 17.8121 33.9502 17.9799 33.917 18.1814L31.8346 27.9864C27.4695 28.121 23.5406 29.4304 20.6864 31.4791C19.9478 30.7736 18.9401 30.3374 17.8322 30.3374C15.5489 30.3374 13.7356 32.1838 13.7356 34.434C13.7356 36.1127 14.7427 37.5229 16.1535 38.1613C16.0859 38.5638 16.0527 38.9669 16.0527 39.4038C16.0527 45.7162 23.4066 50.8543 32.4731 50.8543C41.5395 50.8543 48.8934 45.75 48.8934 39.4038C48.8934 39.0007 48.8596 38.5638 48.7926 38.1613C50.2028 37.5229 51.2099 36.0789 51.2099 34.4002ZM23.0705 37.3214C23.0705 35.7096 24.3799 34.4002 25.9923 34.4002C27.604 34.4002 28.9135 35.7096 28.9135 37.3214C28.9135 38.9331 27.604 40.2432 25.9923 40.2432C24.3799 40.2763 23.0705 38.9331 23.0705 37.3214ZM39.4239 45.0784C37.409 47.0932 33.5809 47.2278 32.4731 47.2278C31.3314 47.2278 27.5033 47.0594 25.5216 45.0784C25.2199 44.776 25.2199 44.306 25.5216 44.0037C25.8239 43.702 26.294 43.702 26.5963 44.0037C27.8726 45.2799 30.559 45.7162 32.4731 45.7162C34.3871 45.7162 37.1067 45.2799 38.3492 44.0037C38.6515 43.702 39.1216 43.702 39.4239 44.0037C39.6924 44.306 39.6924 44.776 39.4239 45.0784ZM38.8862 40.2763C37.2745 40.2763 35.965 38.9669 35.965 37.3552C35.965 35.7434 37.2745 34.434 38.8862 34.434C40.4986 34.434 41.808 35.7434 41.808 37.3552C41.808 38.9331 40.4986 40.2763 38.8862 40.2763Z" fill="white"/>
</svg>
