<?xml version="1.0" encoding="UTF-8"?>
<svg xmlns="http://www.w3.org/2000/svg" viewBox="0 0 1263.02 297.63">
  <defs>
    <style>
      .cls-1 {
        fill: #ff6800;
      }

      .cls-2 {
        fill: #ff8e40;
      }

      .cls-3 {
        fill: #33424f;
      }
    </style>
  </defs>
  <g id="Layer_1" data-name="Layer 1"/>
  <g id="Layer_2" data-name="Layer 2">
    <g id="Layer_1-2" data-name="Layer 1">
      <g>
        <path class="cls-1" d="M1199.97,72.84h-77.04l63.1,109.24-63.1,109.24h77.04l63.05-109.24-63.05-109.24Z"/>
        <path class="cls-2" d="M1263.02,182.09l-63.05-109.24h-77.04l63.1,109.24h76.99Z"/>
        <path class="cls-3" d="M1141.19,184.22c0-65.49-48.69-120.27-115.38-120.27-53.43,0-95.09,37.56-110.7,86.72V20.82c.32-11.17-8.48-20.49-19.65-20.81-.39-.01-.77-.01-1.16,0h-41.62V291.33h41.62c12.07,0,20.81-12.17,20.81-24.24v-56.49c15.61,49.16,58.63,86.88,111.9,86.88,49,0,87.92-32.15,106.75-73.77h-66.64c-10.4,10.4-21.95,20.39-39.64,20.39-25.49,0-46.82-15.19-50.98-41.2h163.14c1.14-6.16,1.66-12.41,1.56-18.68Zm-163.92-28.14c7.8-27.29,36.24-43.1,63.54-35.3,17.08,4.88,30.42,18.23,35.3,35.3h-98.84Z"/>
        <path class="cls-3" d="M764.24,20.82V89.85c-20.81-18.05-39.59-26.01-64.71-26.01-55.09,0-94.21,37.25-105.13,86.72,0-24.81-5.2-51.14-25.23-67.63-16.12-12.04-35.65-18.64-55.77-18.83-26.32,0-45.62,8.9-59.36,29.7h-1.92c.5-10.99-8.01-20.31-19-20.81-.6-.03-1.21-.03-1.81,0h-36.41v81.57c-15.61-52.02-56.18-90.62-112.99-90.62-63.88,0-114.45,53.74-114.45,116.89v7.07c-27.31-36.99-99.15-29.65-99.15-57.22,0-9.83,9.73-13.16,18.36-13.16,11.39,0,19.92,2.18,20.29,17.79h63.62c-4.11-46.87-40-71.37-83.55-71.37S2.76,90.89,2.76,136.41c0,30.59,26.01,47.13,51.76,56.49,9.42,3.54,18.83,6.5,28.25,9.68,11.76,4.68,29.39,9.31,29.39,24.97,0,11.39-12.95,16.54-22.73,16.54-12.95,0-22.73-4.79-24.71-20.39H0c5.2,52.02,43.13,73.77,88.44,73.77,42.4,0,84.79-24.14,88.44-69.08,18.59,41.5,59.56,68.45,105.03,69.08,49,0,87.45-32.15,106.23-73.77h-66.64c-10.4,10.4-21.95,20.39-39.59,20.39-25.54,0-46.82-15.19-50.98-41.2h163.97v88.44h62.43v-120.69c0-26.01,7.8-45.52,38.03-45.52s34.8,20.81,34.8,45.1v96.86c0,12.07,8.69,24.24,20.81,24.24h41.62v-82.14c10.4,49.99,50.56,88.44,106.64,88.44,25.02,0,51.14-5.98,65.03-30.85v1.77c1.01,12.44,11.1,22.2,23.57,22.79h38.86V.01h-41.98c-10.91-.39-20.07,8.14-20.46,19.05-.02,.59-.02,1.17,.02,1.76h0ZM231.7,156.08c7.8-27.29,36.24-43.1,63.54-35.3,17.08,4.88,30.42,18.23,35.3,35.3h-98.84Zm478.59,79.28c-32.51,0-54.47-24.35-54.47-56.08,.03-30.43,24.71-55.07,55.14-55.04,30.39,.03,55.02,24.65,55.04,55.04,1.1,29.86-22.21,54.96-52.07,56.06-1.15,.04-2.29,.05-3.44,.02h-.21Z"/>
      </g>
    </g>
  </g>
</svg>