<svg width="100" height="42" viewBox="0 0 100 42" fill="none" xmlns="http://www.w3.org/2000/svg">
<g clip-path="url(#clip0_0_2805)">
<path fill-rule="evenodd" clip-rule="evenodd" d="M100 21.5001C100 14.3889 96.5555 8.77783 89.9722 8.77783C83.3611 8.77783 79.3611 14.3889 79.3611 21.4445C79.3611 29.8056 84.0833 34.0278 90.8611 34.0278C94.1666 34.0278 96.6666 33.2778 98.5555 32.2222V26.6667C96.6666 27.6112 94.5 28.1945 91.75 28.1945C89.0555 28.1945 86.6666 27.2501 86.3611 23.9723H99.9444C99.9444 23.6112 100 22.1667 100 21.5001ZM86.2777 18.8612C86.2777 15.7223 88.1944 14.4167 89.9444 14.4167C91.6389 14.4167 93.4444 15.7223 93.4444 18.8612H86.2777Z" fill="#635BFF"/>
<path fill-rule="evenodd" clip-rule="evenodd" d="M68.6393 8.77783C65.9171 8.77783 64.1671 10.0556 63.1949 10.9445L62.8338 9.22228H56.7227V41.6111L63.6671 40.1389L63.6949 32.2778C64.6949 33 66.1671 34.0278 68.6115 34.0278C73.5838 34.0278 78.1116 30.0278 78.1116 21.2223C78.0838 13.1667 73.5004 8.77783 68.6393 8.77783ZM66.9727 27.9167C65.3338 27.9167 64.3615 27.3334 63.6949 26.6112L63.6671 16.3056C64.3893 15.5001 65.3893 14.9445 66.9727 14.9445C69.5004 14.9445 71.2504 17.7778 71.2504 21.4167C71.2504 25.1389 69.5282 27.9167 66.9727 27.9167Z" fill="#635BFF"/>
<path fill-rule="evenodd" clip-rule="evenodd" d="M47.166 7.13889L54.1382 5.63889V0L47.166 1.47222V7.13889Z" fill="#635BFF"/>
<path d="M54.1382 9.25H47.166V33.5556H54.1382V9.25Z" fill="#635BFF"/>
<path fill-rule="evenodd" clip-rule="evenodd" d="M39.6944 11.3055L39.25 9.2499H33.25V33.5555H40.1944V17.0832C41.8333 14.9443 44.6111 15.3332 45.4722 15.6388V9.2499C44.5833 8.91656 41.3333 8.30545 39.6944 11.3055Z" fill="#635BFF"/>
<path fill-rule="evenodd" clip-rule="evenodd" d="M25.8056 3.22229L19.0278 4.66673L19 26.9167C19 31.0278 22.0833 34.0556 26.1944 34.0556C28.4722 34.0556 30.1389 33.6389 31.0556 33.1389V27.5001C30.1667 27.8612 25.7778 29.1389 25.7778 25.0278V15.1667H31.0556V9.25007H25.7778L25.8056 3.22229Z" fill="#635BFF"/>
<path fill-rule="evenodd" clip-rule="evenodd" d="M7.02778 16.3056C7.02778 15.2223 7.91667 14.8056 9.38889 14.8056C11.5 14.8056 14.1667 15.4445 16.2778 16.5834V10.0556C13.9722 9.13894 11.6944 8.77783 9.38889 8.77783C3.75 8.77783 0 11.7223 0 16.6389C0 24.3056 10.5556 23.0834 10.5556 26.3889C10.5556 27.6667 9.44444 28.0834 7.88889 28.0834C5.58333 28.0834 2.63889 27.1389 0.305556 25.8612V32.4722C2.88889 33.5834 5.5 34.0556 7.88889 34.0556C13.6667 34.0556 17.6389 31.1945 17.6389 26.2223C17.6111 17.9445 7.02778 19.4167 7.02778 16.3056Z" fill="#635BFF"/>
</g>
<defs>
<clipPath id="clip0_0_2805">
<rect width="100" height="41.6667" fill="white"/>
</clipPath>
</defs>
</svg>
