<svg width="164" height="53" viewBox="0 0 164 53" fill="none" xmlns="http://www.w3.org/2000/svg">
<path d="M84.8066 16.8861C84.7133 24.2362 91.3569 28.3381 96.3616 30.7767C101.504 33.2791 103.231 34.8835 103.211 37.1209C103.172 40.5458 99.1093 42.057 95.3067 42.1159C88.673 42.2189 84.8164 40.325 81.7497 38.8922L79.3602 50.0744C82.4367 51.4924 88.1333 52.7289 94.0408 52.7829C107.907 52.7829 116.979 45.9381 117.028 35.3251C117.082 21.8565 98.3979 21.1107 98.5255 15.0903C98.5696 13.265 100.311 11.3171 104.129 10.8215C106.018 10.5713 111.234 10.3799 117.146 13.1031L119.467 2.284C116.287 1.12604 112.2 0.0171432 107.112 0.0171432C94.0604 0.0171432 84.8802 6.95509 84.8066 16.8861ZM141.767 0.949398C139.236 0.949398 137.101 2.42629 136.149 4.69315L116.341 51.988H130.198L132.955 44.368H149.888L151.487 51.988H163.7L153.043 0.949398H141.767ZM143.706 14.737L147.704 33.9022H136.753L143.706 14.737ZM68.0063 0.949398L57.0842 51.988H70.2879L81.2051 0.949398H68.0063ZM48.4731 0.949398L34.7297 35.6882L29.1705 6.15041C28.5179 2.85316 25.9419 0.949398 23.0814 0.949398H0.614011L0.299988 2.43119C4.9122 3.43214 10.1525 5.04642 13.327 6.77355C15.2701 7.82847 15.8245 8.75091 16.4624 11.2582L26.992 51.988H40.9464L62.3392 0.949398H48.4731Z" fill="url(#paint0_linear_0_10262)"/>
<defs>
<linearGradient id="paint0_linear_0_10262" x1="75.4218" y1="53.8414" x2="76.9491" y2="-0.349797" gradientUnits="userSpaceOnUse">
<stop stop-color="#222357"/>
<stop offset="1" stop-color="#254AA5"/>
</linearGradient>
</defs>
</svg>
