<svg width="184" height="65" viewBox="0 0 184 65" fill="none" xmlns="http://www.w3.org/2000/svg">
<path d="M4.60001 19.7678H15.0042L21.044 35.2419L27.1719 19.7678H37.3116L22.058 56.4472H11.8742L16.0623 46.7483L4.60001 19.7678ZM47.8481 19.1506C40.045 19.1506 35.1073 26.1602 35.1073 33.1258C35.1073 40.9731 40.5299 47.1891 47.7159 47.1891C53.0943 47.1891 55.1223 43.9268 55.1223 43.9268V46.4838H64.2039V19.7678H55.1223V22.1925C55.0782 22.1925 52.8298 19.1506 47.8481 19.1506ZM49.7879 27.7473C53.4029 27.7473 55.2545 30.6129 55.2545 33.1699C55.2545 35.9473 53.2707 38.6806 49.7879 38.6806C46.9223 38.6806 44.3213 36.3441 44.3213 33.3021C44.3213 30.2161 46.3933 27.7473 49.7879 27.7473ZM67.2899 46.4838V7.95284H76.7684V22.2807C76.7684 22.2807 79.0168 19.1506 83.7339 19.1506C89.5092 19.1506 92.9038 23.471 92.9038 29.5989V46.4838H83.4694V31.8914C83.4694 29.8194 82.4995 27.7914 80.2512 27.7914C77.9587 27.7914 76.7684 29.8194 76.7684 31.8914V46.4838H67.2899ZM109.083 19.1506C100.134 19.1506 94.7994 25.9398 94.7994 33.2581C94.7994 41.5462 101.236 47.2332 109.127 47.2332C116.754 47.2332 123.411 41.8107 123.411 33.3903C123.411 24.1764 116.401 19.1506 109.083 19.1506ZM109.171 27.7914C112.346 27.7914 114.506 30.4366 114.506 33.214C114.506 35.5946 112.478 38.5483 109.171 38.5483C106.129 38.5483 103.881 36.1236 103.881 33.1699C103.881 30.3925 105.733 27.7914 109.171 27.7914ZM139.194 19.1506C130.244 19.1506 124.91 25.9398 124.91 33.2581C124.91 41.5462 131.347 47.2332 139.238 47.2332C146.865 47.2332 153.522 41.8107 153.522 33.3903C153.522 24.1764 146.556 19.1506 139.194 19.1506ZM139.282 27.7914C142.456 27.7914 144.616 30.4366 144.616 33.214C144.616 35.5946 142.588 38.5483 139.282 38.5483C136.24 38.5483 133.992 36.1236 133.992 33.1699C133.992 30.3925 135.887 27.7914 139.282 27.7914ZM161.016 34.4484C164.499 34.4484 167.321 37.2699 167.321 40.7526C167.321 44.2354 164.499 47.0569 161.016 47.0569C157.533 47.0569 154.712 44.2354 154.712 40.7526C154.712 37.2699 157.533 34.4484 161.016 34.4484ZM169.393 32.1559H158.062L168.114 7.95284H179.4L169.393 32.1559Z" fill="#5F01D1"/>
</svg>
